# xmcd
#
# Track frame offsets:
#	150
#	10668
#	21483
#	33468
#	44063
#	55175
#	65368
#	76630
#	87925
#	99328
#	108968
#	119383
#	129263
#	140885
#	151753
#	164843
#	176483
#	187900
#	201518
#	214025
#	223290
#	235965
#	244945
#	255543
#	265563
#	275785
#	287750
#	296398
#	306778
#	317393
#	327958
#
# Disc length: 4496 seconds
#
# Revision: 0
# Processed by: cddbd v1.5.2PL0 Copyright (c) Steve Scherf et al.
# Submitted via: VUPlayer 2.49
#
DISCID=c5118e1f
DTITLE=Various Artist - All the Best By Request - Volume 2
DYEAR=1990
DGENRE=Oldies
TTITLE0=Johnny Preston - Cradle of Love
TTITLE1=Roy Orbison - All I Have To Do is Dream
TTITLE2=Jack Scott - Burning Bridges
TTITLE3=Terry Noland - Hypnotized
TTITLE4=Paul and Paula - Hey Paula
TTITLE5=Bob and Lucille - Don't Let the Stars Get in Your Eyes
TTITLE6=Marty Robins - A White Sport Coat
TTITLE7=Chris Andrews - Yesterday Man
TTITLE8=The Marcels   - Heartaches
TTITLE9=Bobby Rydell - Forget Him
TTITLE10=Gene McDaniels - A Hundred Pounds of Clay
TTITLE11=Johnny Horton - Honky Tonk Man
TTITLE12=Lesley Gore - Maybe I Know
TTITLE13=Del Shannon - Hey Baby 
TTITLE14=Mickey and Sylvia - Love is Strange
TTITLE15=The Skyliners   - Since I Don't Have You
TTITLE16=The McGuire Sisters - Sugartime
TTITLE17=Jimmy Dean - Big Bad John
TTITLE18=Brenda Lee - Too Many Rivers
TTITLE19=Buddy Knox - I Think I'm Gonna Kill Myself
TTITLE20=Bob Luman - The Great Snowman
TTITLE21=Jimmy Gilmer - Sugar Shack
TTITLE22=Eddie Cochran - Three Steps To Heaven
TTITLE23=The Everly Brothers   - Donna, Donna
TTITLE24=Johnny Burnette - Walk On By
TTITLE25=Annette Funicello - Train of Love
TTITLE26=The Teddy Bears   - Seven Lonely Days
TTITLE27=Paul Anka - Dance On Little Girl
TTITLE28=Tommy Sands - Teenage Crush
TTITLE29=Buddy Holly - Listen To Me
TTITLE30=Emilie Ford and the Checkmates - What Do You Want To Make Those Eyes At M
TTITLE30=e for
EXTD=
EXTT0=
EXTT1=
EXTT2=
EXTT3=
EXTT4=
EXTT5=
EXTT6=
EXTT7=
EXTT8=
EXTT9=
EXTT10=
EXTT11=
EXTT12=
EXTT13=
EXTT14=
EXTT15=
EXTT16=
EXTT17=
EXTT18=
EXTT19=
EXTT20=
EXTT21=
EXTT22=
EXTT23=
EXTT24=
EXTT25=
EXTT26=
EXTT27=
EXTT28=
EXTT29=
EXTT30=
PLAYORDER=
